<svg width="832" height="788" viewBox="0 0 832 788" fill="none" xmlns="http://www.w3.org/2000/svg">
<g opacity="0.08">
<path d="M820.514 668.983C808.626 694.297 792.506 713.487 772.154 726.756C751.802 740.026 734.272 746.559 719.764 746.559C698.606 746.559 684.299 740.026 676.642 727.165C668.985 714.304 665.157 698.38 665.157 679.803V269.471C665.157 221.089 656.089 176.585 637.954 135.552C619.819 94.7233 588.385 61.856 544.054 37.1544C499.522 12.4528 455.797 0 376.203 0C339.329 0 312.126 5.30777 275.453 13.2694V27.9679C396.152 27.9679 473.73 112.076 471.715 269.471C471.715 284.782 471.514 314.588 471.312 351.13H360.285C244.825 351.13 155.761 371.544 93.4967 412.577C31.2327 453.61 0 510.771 0 584.467C0 647.14 20.9562 696.747 63.07 733.289C104.982 769.831 161.403 788 231.928 788C287.14 788 333.687 774.935 370.964 748.804C408.444 722.674 436.654 686.132 455.998 638.77C462.446 622.847 467.484 605.698 471.715 587.938C471.715 621.418 471.715 643.669 471.715 643.669C471.715 679.395 479.372 707.771 494.485 729.002C509.598 750.233 529.949 765.34 555.54 774.322C580.929 783.305 609.139 788 640.171 788C685.105 788 724.801 778.609 758.855 760.032C793.11 741.251 817.492 716.141 832 684.294L820.514 669.392V668.983ZM449.147 615.702C434.236 653.264 414.892 681.232 391.316 699.401C367.74 717.57 342.351 726.552 315.35 726.552C290.968 726.552 271.221 718.795 255.907 703.076C240.794 687.357 229.712 667.35 222.861 642.853C216.01 618.355 212.786 592.633 212.786 565.89C212.786 537.31 218.629 507.913 230.316 477.699C242.003 447.486 260.945 421.764 287.341 400.737C313.536 379.506 348.799 369.094 392.727 369.094H471.312C471.312 404.003 471.312 443.403 471.312 481.17C470.506 535.268 463.252 580.384 449.147 615.906V615.702Z" fill="black"/>
<path d="M195.646 278.05C254.686 278.05 302.643 229.463 302.643 169.853C302.643 110.243 254.686 61.4519 195.646 61.4519C136.606 61.4519 88.6484 110.038 88.6484 169.853C88.6484 229.667 136.606 278.05 195.646 278.05Z" fill="black"/>
</g>
</svg>
