<svg width="1512" height="2096" viewBox="0 0 1512 2096" fill="none" xmlns="http://www.w3.org/2000/svg">
<path d="M1337.61 1610.28L1247.64 2090.82L333.082 1929.21L130 1144.37L961.695 650L980.509 826.883L1016.48 971.15L1449.86 1345.47L1337.61 1610.28Z" fill="#FAFA00"/>
<path d="M1530.15 1204.1L1403.16 1259.85L1276.98 1144.37L1286 1052.86L1416.5 971.15L1556 1052.86L1530.15 1204.1Z" fill="#FAFA00"/>
<path d="M903.666 568.398L821.5 929.5L265.491 729L244.5 774L175.909 729L38.5 758L-12.1373 729H-82L-61 68.0894L-12.1373 93.2528L-45.4528 156.161L265.491 0L461.681 193.167L636.402 93.2528L1005.09 371.531L903.666 568.398Z" fill="#FAFA00"/>
<path d="M1077.65 266.437L962.893 307.882L848.88 222.03L877.013 68.0894L1027.3 46.6265L1108 93.2528L1077.65 266.437Z" fill="#FAFA00"/>
</svg>
