<svg width="51" height="51" viewBox="0 0 51 51" fill="none" xmlns="http://www.w3.org/2000/svg">
<g clip-path="url(#clip0_308_5587)">
<path d="M25.3149 49.0366C38.4481 49.0366 49.0946 38.3919 49.0946 25.261C49.0946 12.1301 38.4481 1.48535 25.3149 1.48535C12.1817 1.48535 1.53516 12.1301 1.53516 25.261C1.53516 38.3919 12.1817 49.0366 25.3149 49.0366Z" fill="white" stroke="#050504" stroke-width="2.06125" stroke-miterlimit="10"/>
<path d="M13.0486 28.4887C14.8316 28.4887 16.277 27.0436 16.277 25.261C16.277 23.4783 14.8316 22.0332 13.0486 22.0332C11.2657 22.0332 9.82031 23.4783 9.82031 25.261C9.82031 27.0436 11.2657 28.4887 13.0486 28.4887Z" fill="#050504"/>
<path d="M25.3162 28.4887C27.0992 28.4887 28.5445 27.0436 28.5445 25.261C28.5445 23.4783 27.0992 22.0332 25.3162 22.0332C23.5333 22.0332 22.0879 23.4783 22.0879 25.261C22.0879 27.0436 23.5333 28.4887 25.3162 28.4887Z" fill="#050504"/>
<path d="M37.5701 28.4887C39.3531 28.4887 40.7985 27.0436 40.7985 25.261C40.7985 23.4783 39.3531 22.0332 37.5701 22.0332C35.7872 22.0332 34.3418 23.4783 34.3418 25.261C34.3418 27.0436 35.7872 28.4887 37.5701 28.4887Z" fill="#050504"/>
</g>
<defs>
<clipPath id="clip0_308_5587">
<rect width="49.6064" height="49.5978" fill="white" transform="translate(0.505859 0.455078)"/>
</clipPath>
</defs>
</svg>
