<svg width="60" height="60" viewBox="0 0 60 60" fill="none" xmlns="http://www.w3.org/2000/svg">
<circle cx="30" cy="30" r="30" fill="black"/>
<path d="M14.7909 33.939C16.9946 33.939 18.781 32.1525 18.781 29.9489C18.781 27.7452 16.9946 25.9587 14.7909 25.9587C12.5872 25.9587 10.8008 27.7452 10.8008 29.9489C10.8008 32.1525 12.5872 33.939 14.7909 33.939Z" fill="white"/>
<path d="M29.9491 33.939C32.1528 33.939 33.9392 32.1525 33.9392 29.9489C33.9392 27.7452 32.1528 25.9587 29.9491 25.9587C27.7454 25.9587 25.959 27.7452 25.959 29.9489C25.959 32.1525 27.7454 33.939 29.9491 33.939Z" fill="white"/>
<path d="M45.1063 33.939C47.31 33.939 49.0965 32.1525 49.0965 29.9489C49.0965 27.7452 47.31 25.9587 45.1063 25.9587C42.9026 25.9587 41.1162 27.7452 41.1162 29.9489C41.1162 32.1525 42.9026 33.939 45.1063 33.939Z" fill="white"/>
</svg>
