<svg width="238" height="783" viewBox="0 0 238 783" fill="none" xmlns="http://www.w3.org/2000/svg">
<path d="M128.655 531.673H109.345C109.345 474.378 103.623 423.737 92.1769 379.704C80.7313 335.671 68.2372 302.538 54.6509 280.346C18.217 220.907 0 171.315 0 131.572C0 91.8293 10.1788 59.9648 30.5363 35.9789C50.9376 11.993 80.3818 0 119 0C157.618 0 187.062 11.993 207.464 35.9789C227.821 59.9648 238 87.5398 238 118.66C238 149.781 232.277 178.975 220.831 206.2C209.386 233.425 196.892 258.111 183.305 280.303C169.719 302.494 157.225 335.628 145.779 379.66C134.334 423.693 128.611 474.378 128.611 531.629L128.655 531.673ZM46.6127 753.455C26.9541 733.759 17.1248 709.598 17.1248 680.972C17.1248 652.347 26.9541 628.186 46.6127 608.489C66.2713 588.793 90.3858 578.945 118.956 578.945C147.527 578.945 171.641 588.793 191.3 608.489C210.959 628.186 220.788 652.347 220.788 680.972C220.788 709.598 210.959 733.803 191.3 753.455C171.641 773.152 147.527 783 118.956 783C90.3858 783 66.2276 773.152 46.6127 753.455Z" fill="black" opacity="0.08"/>
</svg>
