<svg width="128" height="137" viewBox="0 0 128 137" fill="none" xmlns="http://www.w3.org/2000/svg">
<g clip-path="url(#clip0_0_969)">
<path fill-rule="evenodd" clip-rule="evenodd" d="M0 87.9459L8.26153 85.0645L8.57508 85.9614L5.21348 89.381L9.96973 89.964L10.2866 90.8719L2.024 93.7534L1.73564 92.9237L8.38101 90.6141L4.18723 90.0872L3.97342 89.4705L6.92058 86.4547L0.287255 88.7755L0 87.9459Z" fill="black"/>
<path fill-rule="evenodd" clip-rule="evenodd" d="M3.99609 98.2491L13.0229 96.5225L13.4966 97.3858L7.16035 104.034L6.69876 103.193L8.32148 101.523L6.73932 98.6304L4.45768 99.0899L3.99609 98.2491ZM12.1699 97.5092L7.50572 98.462L8.87186 100.962L12.1929 97.5541L12.1699 97.5092Z" fill="black"/>
<path fill-rule="evenodd" clip-rule="evenodd" d="M10.1055 108.418L16.9811 103.014L18.5819 105.043C18.9942 105.57 19.2474 106.063 19.3417 106.545C19.436 107.028 19.3998 107.465 19.2332 107.868C19.0676 108.261 18.7913 108.619 18.4043 108.922C17.946 109.281 17.4537 109.483 16.9274 109.505C16.4022 109.539 15.8836 109.359 15.3727 108.967L13.5844 112.846L12.9354 112.017L14.6841 108.317C14.6534 108.283 13.5241 106.848 13.5241 106.848L10.6471 109.113L10.1055 108.418ZM14.1633 106.343L15.2071 107.667C15.6501 108.227 16.1029 108.541 16.5656 108.597C17.0272 108.653 17.4548 108.519 17.8473 108.216C18.2672 107.88 18.4997 107.498 18.5468 107.05C18.594 106.601 18.3878 106.097 17.9295 105.514L16.8934 104.191L14.1633 106.343Z" fill="black"/>
<path fill-rule="evenodd" clip-rule="evenodd" d="M17.3984 116.939L23.2851 110.47L23.9331 111.064L21.157 114.113L26.6325 113.519L27.4745 114.282L21.6898 114.898L21.6569 114.943L21.6153 120.784L20.7458 119.988L20.7787 114.528L18.0453 117.533L17.3984 116.939Z" fill="black"/>
<path fill-rule="evenodd" clip-rule="evenodd" d="M26.082 124.193L30.8142 116.838L35.3457 119.753L34.9137 120.426L31.1179 117.981L29.4141 120.627L32.8941 122.87L32.4621 123.542L28.9821 121.3L27.2508 123.991L31.0466 126.435L30.6146 127.108L26.082 124.193Z" fill="black"/>
<path fill-rule="evenodd" clip-rule="evenodd" d="M37.8164 130.707L40.9226 123.386L38.7604 122.467L39.0729 121.727L44.2042 123.913L43.8917 124.642L41.7284 123.733L38.6223 131.043L37.8164 130.707Z" fill="black"/>
<path fill-rule="evenodd" clip-rule="evenodd" d="M46.4902 133.801L46.6602 133.061L48.6567 133.532L50.2959 126.469L48.2982 125.998L48.4682 125.27L53.3144 126.402L53.1455 127.131L51.1478 126.66L49.5087 133.723L51.5063 134.194L51.3364 134.922L46.4902 133.801Z" fill="black"/>
<path fill-rule="evenodd" clip-rule="evenodd" d="M57.0449 135.774L57.5273 127.04L58.4758 127.096L62.2464 134.541L62.6444 127.32L63.5182 127.365L63.0358 136.11L62.0874 136.054L58.3179 128.599L57.9188 135.83L57.0449 135.774Z" fill="black"/>
<path fill-rule="evenodd" clip-rule="evenodd" d="M71.2061 135.763C70.6009 135.83 70.0428 135.718 69.5297 135.415C69.0166 135.113 68.5868 134.642 68.2403 134.003C67.8938 133.364 67.6668 132.567 67.5572 131.626C67.4487 130.684 67.4947 129.854 67.6943 129.159C67.8938 128.453 68.2216 127.892 68.6778 127.489C69.1328 127.074 69.6919 126.827 70.3542 126.749C70.8837 126.692 71.3662 126.749 71.8015 126.917C72.2367 127.085 72.6029 127.354 72.9012 127.724C73.1994 128.083 73.4033 128.531 73.5141 129.047L72.5459 129.159C72.4012 128.643 72.1512 128.229 71.7927 127.926C71.4353 127.623 70.9868 127.511 70.4485 127.567C69.7117 127.657 69.1613 128.049 68.7973 128.744C68.4333 129.439 68.3181 130.37 68.4519 131.525C68.5407 132.298 68.7139 132.937 68.9716 133.475C69.2304 134.002 69.5494 134.384 69.931 134.641C70.3125 134.888 70.7259 134.989 71.1732 134.933C71.546 134.888 71.8563 134.765 72.1052 134.563C72.3541 134.361 72.5514 134.092 72.695 133.778C72.8387 133.464 72.9384 133.128 72.9911 132.758C73.0448 132.388 73.0547 132.007 73.0196 131.637L70.9956 131.872L70.9068 131.099L73.8255 130.762L74.3429 135.247L73.5481 135.337L73.3101 133.935H73.2608C73.1424 134.44 72.9187 134.854 72.5909 135.168C72.263 135.494 71.8015 135.695 71.2061 135.763Z" fill="black"/>
<path fill-rule="evenodd" clip-rule="evenodd" d="M85.6927 132.311L84.9219 123.151L85.833 122.77L91.7844 129.765L90.8963 130.135L89.4052 128.353L86.3593 129.62L86.5819 131.94L85.6927 132.311ZM85.8198 124.104L86.2781 128.846L88.9095 127.747L85.8659 124.081L85.8198 124.104Z" fill="black"/>
<path fill-rule="evenodd" clip-rule="evenodd" d="M98.7281 125.997C98.2139 126.322 97.6603 126.468 97.0671 126.423C96.4739 126.367 95.8829 126.132 95.2931 125.706C94.7021 125.28 94.1528 124.674 93.6441 123.867C93.1353 123.071 92.8174 122.309 92.6913 121.591C92.5663 120.862 92.6178 120.223 92.8481 119.652C93.0783 119.08 93.4752 118.62 94.0388 118.261C94.4883 117.97 94.9477 117.813 95.4137 117.779C95.8808 117.745 96.327 117.824 96.7535 118.026C97.18 118.228 97.5572 118.53 97.8861 118.956L97.0627 119.483C96.7064 119.08 96.3007 118.811 95.8468 118.698C95.3928 118.575 94.9378 118.665 94.4806 118.956C93.8535 119.349 93.5289 119.943 93.5037 120.728C93.4785 121.513 93.7789 122.398 94.4039 123.385C94.8194 124.035 95.258 124.551 95.7196 124.91C96.1823 125.28 96.6395 125.481 97.0912 125.549C97.5429 125.605 97.9585 125.515 98.3389 125.268C98.6547 125.067 98.8806 124.82 99.0154 124.528C99.1514 124.237 99.215 123.923 99.2073 123.576C99.2007 123.228 99.1404 122.88 99.0275 122.522C98.9135 122.163 98.76 121.826 98.5659 121.501L96.8456 122.589L96.4311 121.939L98.9113 120.369L101.329 124.17L100.652 124.607L99.8257 123.441L99.784 123.463C99.8948 123.968 99.8739 124.439 99.7193 124.865C99.5647 125.302 99.2347 125.683 98.7281 125.997Z" fill="black"/>
<path fill-rule="evenodd" clip-rule="evenodd" d="M105.69 120.807L99.8223 114.315L103.819 110.705L104.355 111.299L101.007 114.315L103.12 116.658L106.189 113.878L106.726 114.472L103.656 117.252C103.656 117.252 104.888 119.73 105.803 119.629C106.719 119.517 109.151 116.602 109.151 116.602L109.687 117.197L105.69 120.807Z" fill="black"/>
<path fill-rule="evenodd" clip-rule="evenodd" d="M113.463 113.205L106.609 107.756L107.2 107.016L115.455 108.238L109.796 103.743L110.34 103.059L117.193 108.496L116.602 109.247L108.338 108.014L114.007 112.51L113.463 113.205Z" fill="black"/>
<path fill-rule="evenodd" clip-rule="evenodd" d="M121.752 101.478C121.415 102.084 120.961 102.521 120.388 102.79C119.815 103.059 119.166 103.149 118.443 103.059C117.719 102.969 116.954 102.7 116.145 102.252C115.337 101.803 114.704 101.299 114.247 100.727C113.791 100.166 113.524 99.5612 113.449 98.9333C113.373 98.3055 113.503 97.6887 113.839 97.0833C114.264 96.3209 114.819 95.8165 115.504 95.5811C116.19 95.3457 116.907 95.3679 117.654 95.6706L117.182 96.5227C116.69 96.3433 116.203 96.3321 115.72 96.4778C115.238 96.6236 114.852 96.9601 114.56 97.487C114.189 98.1597 114.179 98.8434 114.533 99.561C114.886 100.267 115.569 100.907 116.582 101.467C117.594 102.028 118.495 102.274 119.286 102.196C120.076 102.129 120.658 101.747 121.03 101.075C121.337 100.525 121.427 100.021 121.3 99.5497C121.173 99.0789 120.901 98.6867 120.482 98.3615L120.955 97.5095C121.597 98.014 121.996 98.6192 122.153 99.3031C122.31 99.987 122.176 100.716 121.752 101.478Z" fill="black"/>
<path fill-rule="evenodd" clip-rule="evenodd" d="M126.05 91.6571L122.752 90.4798L116.863 91.3768L117.194 90.4462L122.087 89.7846L118.71 86.1745L119.041 85.2441L123.045 89.6614L126.343 90.8274L126.05 91.6571Z" fill="black"/>
<path fill-rule="evenodd" clip-rule="evenodd" d="M127.344 48.1654L119.082 51.0469L118.769 50.1499L122.13 46.7303L117.374 46.1473L117.057 45.2394L125.32 42.358L125.608 43.1876L118.963 45.4972L123.157 46.0241L123.37 46.6408L120.423 49.6567L127.056 47.3358L127.344 48.1654Z" fill="black"/>
<path fill-rule="evenodd" clip-rule="evenodd" d="M123.346 37.8613L114.319 39.5879L113.845 38.7246L120.181 32.0762L120.643 32.9171L119.02 34.5876L120.602 37.48L122.884 37.0204L123.346 37.8613ZM115.172 38.6011L119.836 37.6483L118.47 35.1482L115.149 38.5562L115.172 38.6011Z" fill="black"/>
<path fill-rule="evenodd" clip-rule="evenodd" d="M117.238 27.6927L110.363 33.0967L108.762 31.0673C108.35 30.5404 108.096 30.047 108.002 29.5649C107.908 29.0828 107.944 28.6456 108.111 28.242C108.276 27.8496 108.552 27.4909 108.939 27.1882C109.398 26.8294 109.89 26.6276 110.416 26.6052C110.942 26.5715 111.46 26.7509 111.971 27.1433L113.759 23.2642L114.408 24.0938L112.66 27.7937C112.69 27.8273 113.82 29.2624 113.82 29.2624L116.697 26.9977L117.238 27.6927ZM113.18 29.7669L112.137 28.4437C111.694 27.8832 111.241 27.5694 110.778 27.5134C110.317 27.4573 109.889 27.5917 109.496 27.8944C109.077 28.2307 108.844 28.612 108.797 29.0604C108.75 29.5089 108.956 30.0135 109.414 30.5965L110.45 31.9194L113.18 29.7669Z" fill="black"/>
<path fill-rule="evenodd" clip-rule="evenodd" d="M109.945 19.1718L104.059 25.6406L103.411 25.0467L106.187 21.9969L100.711 22.5911L99.8692 21.8288L105.654 21.2121L105.687 21.1672L105.728 15.3261L106.598 16.1221L106.565 21.5822L109.298 18.5776L109.945 19.1718Z" fill="black"/>
<path fill-rule="evenodd" clip-rule="evenodd" d="M101.262 11.9186L96.5296 19.2734L91.9981 16.3586L92.4301 15.6858L96.2259 18.1298L97.9297 15.4841L94.4496 13.2418L94.8817 12.569L98.3617 14.8113L100.093 12.1206L96.2971 9.67633L96.7291 9.0038L101.262 11.9186Z" fill="black"/>
<path fill-rule="evenodd" clip-rule="evenodd" d="M89.5273 5.40434L86.4212 12.7255L88.5833 13.6446L88.2709 14.3848L83.1396 12.1983L83.4521 11.4697L85.6153 12.3779L88.7215 5.06794L89.5273 5.40434Z" fill="black"/>
<path fill-rule="evenodd" clip-rule="evenodd" d="M80.8535 2.31L80.6836 3.04986L78.687 2.57906L77.0479 9.64236L79.0455 10.1132L78.8756 10.8418L74.0294 9.70942L74.1983 8.98079L76.1959 9.45158L77.8351 2.38828L75.8374 1.91749L76.0074 1.18885L80.8535 2.31Z" fill="black"/>
<path fill-rule="evenodd" clip-rule="evenodd" d="M70.2988 0.33651L69.8164 9.07031L68.868 9.0142L65.0974 1.56961L64.6994 8.79002L63.8255 8.74514L64.308 0.000110626L65.2564 0.0562229L69.0259 7.51176L69.425 0.280397L70.2988 0.33651Z" fill="black"/>
<path fill-rule="evenodd" clip-rule="evenodd" d="M56.1396 0.347727C56.7448 0.280457 57.3029 0.392365 57.816 0.695075C58.3291 0.997786 58.7589 1.46868 59.1054 2.10773C59.4519 2.74679 59.6789 3.54294 59.7885 4.4847C59.897 5.42647 59.851 6.25607 59.6514 6.95118C59.4519 7.6575 59.1241 8.21807 58.668 8.62168C58.2129 9.03651 57.6538 9.28334 56.9915 9.36182C56.462 9.41787 55.9795 9.36165 55.5443 9.19348C55.109 9.02531 54.7428 8.75626 54.4446 8.38628C54.1463 8.02752 53.9424 7.57913 53.8316 7.0634L54.7998 6.95118C54.9445 7.46691 55.1945 7.88184 55.553 8.18455C55.9105 8.48726 56.3589 8.59918 56.8972 8.54313C57.634 8.45343 58.1844 8.06125 58.5484 7.36614C58.9124 6.67102 59.0276 5.74049 58.8938 4.58571C58.805 3.81211 58.6318 3.17307 58.3741 2.63492C58.1153 2.10798 57.7963 1.72674 57.4147 1.46888C57.0332 1.22222 56.6198 1.12131 56.1725 1.17737C55.7997 1.22221 55.4894 1.34535 55.2405 1.54716C54.9916 1.74897 54.7943 2.01826 54.6507 2.33218C54.507 2.64611 54.4073 2.98235 54.3546 3.35233C54.3009 3.72231 54.2911 4.1035 54.3261 4.47348L56.3501 4.23808L56.4389 5.01161L53.5203 5.34801L53.0028 0.863412L53.7976 0.773632L54.0356 2.17507H54.0849C54.2033 1.67055 54.427 1.25589 54.7548 0.941969C55.0827 0.616836 55.5443 0.414995 56.1396 0.347727Z" fill="black"/>
<path fill-rule="evenodd" clip-rule="evenodd" d="M41.6511 3.8008L42.4219 12.9608L41.5108 13.3418L35.5594 6.34583L36.4475 5.97604L37.9386 7.75849L40.9845 6.49172L40.7619 4.17087L41.6511 3.8008ZM41.5239 12.0077L41.0656 7.26525L38.4342 8.36396L41.4778 12.0301L41.5239 12.0077Z" fill="black"/>
<path fill-rule="evenodd" clip-rule="evenodd" d="M28.6156 10.1123C29.1298 9.78712 29.6835 9.64123 30.2767 9.68608C30.8698 9.74214 31.4608 9.97773 32.0507 10.4038C32.6417 10.8298 33.191 11.4351 33.6997 12.2423C34.2084 13.0383 34.5264 13.8008 34.6525 14.5183C34.7775 15.247 34.7259 15.8861 34.4957 16.4579C34.2654 17.0297 33.8685 17.4893 33.305 17.8481C32.8554 18.1396 32.396 18.2967 31.9301 18.3304C31.463 18.364 31.0168 18.2853 30.5902 18.0835C30.1637 17.8817 29.7866 17.5791 29.4576 17.1531L30.281 16.6262C30.6374 17.0298 31.0431 17.2988 31.497 17.411C31.9509 17.5343 32.4059 17.4446 32.8631 17.1531C33.4903 16.7607 33.8148 16.1664 33.84 15.3816C33.8652 14.5968 33.5648 13.7112 32.9399 12.7246C32.5243 12.0744 32.0858 11.5585 31.6242 11.1997C31.1615 10.8298 30.7043 10.6279 30.2525 10.5606C29.8008 10.5046 29.3853 10.5942 29.0048 10.8409C28.689 11.0427 28.4632 11.2895 28.3283 11.581C28.1924 11.8725 28.1288 12.1863 28.1365 12.5338C28.143 12.8814 28.2033 13.2289 28.3163 13.5877C28.4303 13.9464 28.5838 14.2829 28.7779 14.6081L30.4981 13.5206L30.9126 14.1707L28.4325 15.7405L26.0149 11.9396L26.6914 11.5025L27.5181 12.6685L27.5597 12.6461C27.449 12.1416 27.4698 11.6707 27.6244 11.2446C27.779 10.8074 28.1091 10.4262 28.6156 10.1123Z" fill="black"/>
<path fill-rule="evenodd" clip-rule="evenodd" d="M21.6535 15.3037L27.5215 21.7952L23.525 25.4053L22.9889 24.811L26.3363 21.7952L24.2235 19.4522L21.1546 22.2326L20.6173 21.6384L23.6873 18.8579L21.5405 16.481L18.1931 19.508L17.657 18.9138L21.6535 15.3037Z" fill="black"/>
<path fill-rule="evenodd" clip-rule="evenodd" d="M13.8806 22.9053L20.7344 28.3542L20.1434 29.0941L11.8885 27.8722L17.5482 32.3677L17.0033 33.0518L10.1507 27.6141L10.7416 26.863L19.0053 28.0964L13.3369 23.6005L13.8806 22.9053Z" fill="black"/>
<path fill-rule="evenodd" clip-rule="evenodd" d="M5.59395 34.633C5.93055 34.0275 6.38449 33.5904 6.95792 33.3213C7.53025 33.0522 8.17931 32.9625 8.90295 33.0522C9.62659 33.1419 10.3919 33.411 11.2011 33.8594C12.0091 34.3079 12.6417 34.8125 13.0989 35.3843C13.5551 35.9449 13.8215 36.5501 13.8971 37.178C13.9728 37.8058 13.8423 38.4226 13.5068 39.0281C13.0814 39.7904 12.5266 40.2948 11.8413 40.5302C11.1561 40.7657 10.439 40.7434 9.69127 40.4407L10.1638 39.5886C10.6561 39.768 11.1429 39.7793 11.6254 39.6335C12.1078 39.4878 12.4937 39.1513 12.7854 38.6243C13.1571 37.9516 13.1669 37.2679 12.8128 36.5504C12.4597 35.844 11.7767 35.2048 10.7636 34.6442C9.75157 34.0836 8.85034 33.8371 8.05982 33.9155C7.26931 33.9828 6.6882 34.364 6.31542 35.0367C6.00842 35.5861 5.91851 36.0907 6.04569 36.5616C6.17288 37.0325 6.44479 37.4247 6.86363 37.7498L6.39107 38.6019C5.74857 38.0974 5.34945 37.4921 5.19266 36.8082C5.03588 36.1243 5.16964 35.3953 5.59395 34.633Z" fill="black"/>
<path fill-rule="evenodd" clip-rule="evenodd" d="M1.29357 44.4542L4.59159 45.6315L10.4805 44.7345L10.1493 45.6652L5.25712 46.3267L8.63411 49.9368L8.30299 50.8672L4.29885 46.4499L1.00083 45.2839L1.29357 44.4542Z" fill="black"/>
<path d="M2.31623 69.0781C3.14446 69.0781 3.81583 68.3934 3.81583 67.5488C3.81583 66.7042 3.14446 66.0195 2.31623 66.0195C1.48799 66.0195 0.816528 66.7042 0.816528 67.5488C0.816528 68.3934 1.48799 69.0781 2.31623 69.0781Z" fill="black"/>
<path d="M125.027 69.0781C125.855 69.0781 126.527 68.3934 126.527 67.5488C126.527 66.7042 125.855 66.0195 125.027 66.0195C124.199 66.0195 123.527 66.7042 123.527 67.5488C123.527 68.3934 124.199 69.0781 125.027 69.0781Z" fill="black"/>
<path fill-rule="evenodd" clip-rule="evenodd" d="M94.6714 43.0088L85.5203 53.0083V93.009H34.6719V43.0088H94.6714ZM92.2483 44.0761H35.7388V91.9416H84.4534V53.0083C84.4534 52.7421 84.5524 52.485 84.7333 52.2877L92.2483 44.0761Z" fill="black"/>
<path d="M61.1095 81.1799H60.1196V71.4588H56.8594V70.4932H64.3696V71.4588H61.1095V81.1799Z" fill="black"/>
<path d="M73.1233 81.1799H72.1333V76.5764L68.4883 70.4932H69.7267L72.6549 75.6711L75.6134 70.4932H76.7684L73.1233 76.5764V81.1799Z" fill="black"/>
<path d="M46.3201 81.1799H45.3301V70.4932H48.19C48.668 70.4932 49.1098 70.5431 49.5176 70.6451C49.9253 70.745 50.2781 70.9094 50.5759 71.1341C50.8755 71.361 51.1069 71.6565 51.2719 72.0186C51.4369 72.3808 51.5184 72.822 51.5184 73.3464C51.5184 73.7377 51.4539 74.0956 51.3269 74.4182C51.1979 74.7387 51.0234 75.0197 50.8034 75.2548C50.5834 75.4921 50.3217 75.6815 50.0201 75.8209C49.7167 75.9624 49.3868 76.0519 49.0302 76.0935L51.8768 81.1799H50.6669L47.97 76.183H46.3201V81.1799ZM46.3201 75.2486H48.0383C48.8368 75.2486 49.4512 75.0904 49.8817 74.772C50.3122 74.4557 50.5284 73.9812 50.5284 73.3464C50.5284 72.9947 50.4697 72.6971 50.3502 72.4557C50.2307 72.2143 50.0656 72.0186 49.8551 71.8667C49.6427 71.7169 49.3867 71.6045 49.0851 71.5358C48.7817 71.4651 48.4479 71.4297 48.08 71.4297H46.3201V75.2486Z" fill="black"/>
<path d="M60.6067 63.9843H60.6352L63.805 54.6816H64.8654L61.1312 65.3898H60.0841L56.3633 54.6816H57.4369L60.6067 63.9843Z" fill="black"/>
<path d="M70.597 64.5005H75.6513V65.4677H69.6055V54.7646H75.6513V55.7318H70.597V59.421H75.3208V60.3736H70.597V64.5005Z" fill="black"/>
<path d="M53.4348 60.0452C53.4348 60.8223 53.3137 61.536 53.068 62.1883C52.8241 62.8405 52.4863 63.4036 52.0527 63.8774C51.6209 64.3532 51.1096 64.724 50.5206 64.9916C49.9299 65.2612 49.2903 65.3941 48.6002 65.3941C47.91 65.3941 47.2705 65.2612 46.6815 64.9916C46.0907 64.724 45.5795 64.3532 45.1477 63.8774C44.7159 63.4036 44.3762 62.8405 44.1323 62.1883C43.8884 61.536 43.7656 60.8223 43.7656 60.0452C43.7656 59.27 43.8884 58.5563 44.1323 57.904C44.3762 57.2518 44.7159 56.6887 45.1477 56.2149C45.5795 55.7391 46.0907 55.3683 46.6815 55.1007C47.2705 54.8311 47.91 54.6982 48.6002 54.6982C49.2903 54.6982 49.9299 54.8311 50.5206 55.1007C51.1096 55.3683 51.6209 55.7391 52.0527 56.2149C52.4863 56.6887 52.8241 57.2518 53.068 57.904C53.3137 58.5563 53.4348 59.27 53.4348 60.0452ZM52.4393 60.0452C52.4393 59.4524 52.3526 58.8874 52.1773 58.3501C52.0021 57.8128 51.7492 57.341 51.4186 56.9326C51.0861 56.5261 50.6815 56.203 50.2063 55.9631C49.7294 55.7232 49.1946 55.6043 48.6002 55.6043C48.0058 55.6043 47.471 55.7232 46.9959 55.9631C46.5189 56.203 46.1161 56.5261 45.7836 56.9326C45.4512 57.341 45.1983 57.8128 45.023 58.3501C44.8478 58.8874 44.761 59.4524 44.761 60.0452C44.761 60.6399 44.8478 61.2069 45.023 61.7422C45.1983 62.2795 45.4512 62.7493 45.7836 63.1518C46.1161 63.5543 46.5189 63.8754 46.9959 64.1153C47.471 64.3552 48.0058 64.4742 48.6002 64.4742C49.1946 64.4742 49.7294 64.3552 50.2063 64.1153C50.6815 63.8754 51.0861 63.5543 51.4186 63.1518C51.7492 62.7493 52.0021 62.2795 52.1773 61.7422C52.3526 61.2069 52.4393 60.6399 52.4393 60.0452Z" fill="black"/>
</g>
<defs>
<clipPath id="clip0_0_969">
<rect width="128" height="137" fill="white"/>
</clipPath>
</defs>
</svg>
