<svg width="905" height="906" viewBox="0 0 905 906" fill="none" xmlns="http://www.w3.org/2000/svg">
<g opacity="0.08">
<path d="M452.516 899.308C698.996 899.308 898.808 699.496 898.808 453.016C898.808 206.536 698.996 6.72461 452.516 6.72461C206.036 6.72461 6.22461 206.536 6.22461 453.016C6.22461 699.496 206.036 899.308 452.516 899.308Z" stroke="#050504" stroke-width="5.26322" stroke-miterlimit="10"/>
<path d="M222.276 513.551C255.708 513.551 282.811 486.449 282.811 453.016C282.811 419.583 255.708 392.48 222.276 392.48C188.843 392.48 161.74 419.583 161.74 453.016C161.74 486.449 188.843 513.551 222.276 513.551Z" fill="#050504"/>
<path d="M452.516 513.551C485.949 513.551 513.051 486.449 513.051 453.016C513.051 419.583 485.949 392.48 452.516 392.48C419.083 392.48 391.98 419.583 391.98 453.016C391.98 486.449 419.083 513.551 452.516 513.551Z" fill="#050504"/>
<path d="M682.727 513.551C716.16 513.551 743.262 486.449 743.262 453.016C743.262 419.583 716.16 392.48 682.727 392.48C649.294 392.48 622.191 419.583 622.191 453.016C622.191 486.449 649.294 513.551 682.727 513.551Z" fill="#050504"/>
</g>
</svg>
