<svg width="235" height="196" viewBox="0 0 235 196" fill="none" xmlns="http://www.w3.org/2000/svg">
<path fill-rule="evenodd" clip-rule="evenodd" d="M234.2 0L198.48 39.0313V195.167H0L0 0L234.2 0Z" fill="black"/>
<g clip-path="url(#clip0_197_165)">
<rect width="155.97" height="155.97" transform="translate(20.415 20.4148)" fill="#FAFA00"/>
<path fill-rule="evenodd" clip-rule="evenodd" d="M20.415 20.4148V64.0864H64.0866V20.4148H20.415ZM70.3254 20.4148V39.1312H76.5642V26.6536H89.0418V39.1312H95.2806V45.37H70.3254V51.6088H89.0418V57.8476H95.2806V76.564H101.519V70.3252H107.758V76.564H113.997V82.8028H101.519V89.0416H120.236V76.564H113.997V70.3252H107.758V64.0864H101.519V45.37H107.758V64.0864H113.997V45.37H107.758V39.1312H113.997V45.37H126.475V39.1312H113.997V26.6536H107.758V20.4148L70.3254 20.4148ZM132.713 20.4148V64.0864H176.385V20.4148H132.713ZM57.8478 26.6536V57.8476H26.6538V26.6536H57.8478ZM170.146 26.6536V57.8476H138.952V26.6536H170.146ZM32.8926 32.8924V51.6088H51.609V32.8924H32.8926ZM101.519 32.8924V26.6536H107.758V32.8924H101.519ZM145.191 32.8924V51.6088H163.907V32.8924H145.191ZM70.3254 57.8476V64.0864H76.5642V57.8476H70.3254ZM82.803 57.8476V64.0864H89.0418V57.8476H82.803ZM120.236 57.8476V64.0864H126.475V57.8476H120.236ZM20.415 70.3252V82.8028H26.6538V89.0416H20.415V95.2804H26.6538V101.519H32.8926V95.2804H39.1314V101.519H45.3702V107.758H26.6538V101.519H20.415V126.474H26.6538V113.997H39.1314V120.236H32.8926V126.474H64.0866V120.236H57.8478V113.997H51.609V107.758H57.8478V113.997H64.0866V107.758H57.8478V101.519H64.0866V95.2804H57.8478V89.0416H64.0866V82.8028H57.8478V76.564H64.0866V82.8028H70.3254V95.2804H76.5642V70.3252H39.1314V76.564H45.3702V89.0416H51.609V95.2804H39.1314V76.564H32.8926V82.8028H26.6538V70.3252H20.415ZM126.475 70.3252V76.564H132.713V70.3252H126.475ZM145.191 70.3252V76.564H138.952V82.8028H132.713V89.0416H151.43V95.2804H170.146V101.519H176.385V82.8028H170.146V76.564H176.385V70.3252H157.669V76.564H151.43V70.3252H145.191ZM82.803 76.564V82.8028H89.0418V89.0416H95.2806V107.758H101.519V113.997H107.758V107.758H101.519V89.0416H95.2806V82.8028H89.0418V76.564H82.803ZM82.803 89.0416V101.519H89.0418V89.0416H82.803ZM126.475 89.0416V95.2804H132.713V101.519H145.191V113.997H151.43V120.236H157.669V132.713H170.146V138.952H176.385V132.713H170.146V120.236H163.907V113.997H170.146V120.236H176.385V107.758H170.146V101.519H163.907V107.758H151.43V101.519H145.191V95.2804H132.713V89.0416H126.475ZM157.669 89.0416V82.8028H170.146V89.0416H157.669ZM113.997 95.2804V101.519H107.758V107.758H113.997V113.997H120.236V138.952H101.519V145.191H113.997V151.43H126.475V157.668H120.236V163.907H126.475V170.146H132.713V176.385H138.952V170.146H132.713V157.668H138.952V151.43H151.43V120.236H145.191V113.997H138.952V107.758H126.475V101.519H120.236V95.2804H113.997ZM70.3254 107.758V157.668H76.5642V170.146H70.3254V176.385H82.803V170.146H89.0418V176.385H101.519V163.907H95.2806V151.43H101.519V163.907H107.758V157.668H113.997V151.43H101.519V145.191H95.2806V132.713H89.0418V151.43H82.803V145.191H76.5642V107.758H70.3254ZM82.803 120.236V126.474H89.0418V120.236H82.803ZM95.2806 120.236V126.474H107.758V120.236H95.2806ZM126.475 120.236V113.997H120.236V107.758H126.475V113.997H138.952V120.236H126.475ZM145.191 126.474V145.191H126.475V126.474H145.191ZM20.415 132.713V176.385H64.0866V132.713H20.415ZM132.713 132.713V138.952H138.952V132.713H132.713ZM57.8478 138.952V170.146H26.6538V138.952H57.8478ZM32.8926 145.191V163.907H51.609V145.191H32.8926ZM163.907 151.43V157.668H145.191V163.907H138.952V170.146H151.43V176.385H157.669V170.146H151.43V163.907H157.669V170.146H170.146V176.385H176.385V151.43H163.907ZM82.803 157.668H76.5642V151.43H82.803V157.668ZM95.2806 170.146H89.0418V163.907H95.2806V170.146ZM120.236 170.146V176.385H126.475V170.146H120.236Z" fill="black"/>
</g>
<defs>
<clipPath id="clip0_197_165">
<rect width="155.97" height="155.97" fill="white" transform="translate(20.415 20.4148)"/>
</clipPath>
</defs>
</svg>
