<svg width="212" height="753" viewBox="0 0 212 753" fill="none" xmlns="http://www.w3.org/2000/svg">
<path opacity="0.08" d="M212 686.025L24.3535 686.025L24.3535 752.676L0.623047 752.676L0.62304 593.008L24.3535 593.008L24.3535 659.658L212 659.658L212 686.025ZM212 565.176L0.623038 565.176L0.623033 434.219L24.3535 434.219L24.3535 538.809L92.1758 538.809L92.1758 439.639L115.613 439.639L115.613 538.809L188.27 538.809L188.27 434.219L212 434.219L212 565.176ZM212 416.201L0.623028 337.539L0.623028 318.057L32.2637 318.057L32.2637 324.795L212 388.516L212 416.201ZM151.502 380.166L129.09 371.377L129.09 277.627L151.502 268.838L151.502 380.166ZM212 260.635L32.2637 324.209L0.623028 324.209L0.623027 311.465L212 232.949L212 260.635ZM212 208.633L0.623023 208.633L0.623021 178.164L178.748 104.922L178.748 104.043L0.623015 30.8008L0.623014 0.332027L212 0.332018L212 24.9414L48.6699 24.9414L48.6699 36.9531L6.48239 8.38867L212 93.3496L212 115.615L6.4824 200.576L48.6699 172.012L48.6699 184.023L212 184.023L212 208.633Z" fill="black"/>
</svg>
